<?xml version="1.0" standalone="no"?><svg xmlns="http://www.w3.org/2000/svg" viewBox="0 0 1440 320"><path fill="#273036" fill-opacity="1" d="M0,256L12.6,261.3C25.3,267,51,277,76,266.7C101.1,256,126,224,152,229.3C176.8,235,202,277,227,272C252.6,267,278,213,303,192C328.4,171,354,181,379,170.7C404.2,160,429,128,455,101.3C480,75,505,53,531,64C555.8,75,581,117,606,144C631.6,171,657,181,682,202.7C707.4,224,733,256,758,229.3C783.2,203,808,117,834,112C858.9,107,884,181,909,208C934.7,235,960,213,985,192C1010.5,171,1036,149,1061,149.3C1086.3,149,1112,171,1137,154.7C1162.1,139,1187,85,1213,90.7C1237.9,96,1263,160,1288,202.7C1313.7,245,1339,267,1364,234.7C1389.5,203,1415,117,1427,74.7L1440,32L1440,0L1427.4,0C1414.7,0,1389,0,1364,0C1338.9,0,1314,0,1288,0C1263.2,0,1238,0,1213,0C1187.4,0,1162,0,1137,0C1111.6,0,1086,0,1061,0C1035.8,0,1011,0,985,0C960,0,935,0,909,0C884.2,0,859,0,834,0C808.4,0,783,0,758,0C732.6,0,707,0,682,0C656.8,0,632,0,606,0C581.1,0,556,0,531,0C505.3,0,480,0,455,0C429.5,0,404,0,379,0C353.7,0,328,0,303,0C277.9,0,253,0,227,0C202.1,0,177,0,152,0C126.3,0,101,0,76,0C50.5,0,25,0,13,0L0,0Z"></path></svg>